<svg id="Capa_1" enable-background="new 0 0 512 512" height="512" viewBox="0 0 512 512" width="512" xmlns="http://www.w3.org/2000/svg"><circle cx="256" cy="256" fill="#faea00" r="256"/><path d="m512 256c0 87.11-43.52 164.07-110 210.31-33.87 23.55-73.69 39.14-116.76 44.04-9.59 1.09-19.35 1.65-29.24 1.65s-19.65-.56-29.24-1.65c-43.07-4.9-82.89-20.49-116.76-44.04-66.48-46.24-110-123.2-110-210.31 0-46.22 12.25-89.57 33.68-127 39.54 69.06 110.32 117.94 193.08 127.34 9.6 1.1 19.35 1.66 29.24 1.66s19.64-.56 29.24-1.66c82.76-9.4 153.55-58.28 193.08-127.34 21.43 37.43 33.68 80.78 33.68 127z" fill="#ffc300"/><path d="m285.24 219.88v290.47c-9.59 1.09-19.35 1.65-29.24 1.65s-19.65-.56-29.24-1.65v-290.47z" fill="#4e689b"/><path d="m285.24 219.88v290.47c-9.59 1.09-19.35 1.65-29.24 1.65v-292.12z" fill="#374c81"/><path d="m226.76 219.88h29.24v169.92h-29.24z" fill="#374c81"/><path d="m256 219.88h29.24v169.92h-29.24z" fill="#234177"/><path d="m450.76 160.61v155.07c0 12.72-10.32 23.04-23.05 23.04h-343.42c-12.73 0-23.05-10.32-23.05-23.04v-155.07c0-12.73 10.32-23.04 23.05-23.04h343.42c12.73 0 23.05 10.31 23.05 23.04z" fill="#fe3345"/><path d="m450.76 160.61v155.07c0 12.72-10.32 23.04-23.05 23.04h-268.84v-201.15h268.84c12.73 0 23.05 10.31 23.05 23.04z" fill="#de1263"/><path d="m450.76 160.61v155.07c0 12.72-10.32 23.04-23.05 23.04h-171.71v-201.15h171.71c12.73 0 23.05 10.31 23.05 23.04z" fill="#bc0e5c"/><path d="m214.712 160.125h-93.075c-4.79 0-8.671 3.891-8.671 8.682v17.845c-5.854 4.045-10.304 9.668-12.891 16.3-1.129 2.905-1.052 6.062.197 8.912 1.25 2.85 3.541 5.031 6.445 6.16l4.253 1.644c.647.252 1.315.449 1.995.581v23.151h-3.288c-6.424 0-11.641 5.207-11.641 11.63v4.571c0 6.424 5.218 11.641 11.641 11.641h3.288v17.297h44.844c1.842 2.784 4.977 4.527 8.429 4.527h8.057c3.245 0 6.314-1.568 8.21-4.209.077-.099.143-.208.219-.318h40.656v-119.732c.002-4.791-3.878-8.682-8.668-8.682zm-55.838 4.264c5.788 0 10.479 4.692 10.479 10.479s-4.692 10.479-10.479 10.479c-5.788 0-10.479-4.692-10.479-10.479-.001-5.787 4.691-10.479 10.479-10.479zm38.606 46.587c0 2.083-1.688 3.76-3.771 3.76h-5.262c-5.908 0-11.586-2.346-15.763-6.522l-7.169-7.169-7.103 21.32c-.723 2.159-.723 4.505.011 6.664l17.988 53.218c.493 1.447-.581 2.949-2.116 2.949h-8.057c-.965 0-1.809-.603-2.116-1.513l-16.848-49.809c-.285-.855-.833-1.568-1.524-2.072-.702-.504-1.546-.789-2.455-.789-2.313 0-4.198 1.885-4.198 4.209v17.604c0 5.821-4.724 10.545-10.545 10.545h-18.876c-2.083 0-3.771-1.688-3.771-3.771v-4.571c0-2.083 1.688-3.771 3.771-3.771h14.59c1.502 0 2.729-1.217 2.74-2.718l.044-8.353c.033-6.259 1.063-12.463 3.036-18.405l7.169-21.495h-7.103c-4.593 0-8.714 2.828-10.381 7.103l-1.085 2.795c-.745 1.94-2.927 2.905-4.867 2.148l-4.264-1.655c-1.491-.57-2.411-2.006-2.411-3.508 0-.449.088-.91.263-1.359 4.122-10.589 14.316-17.56 25.672-17.56h23.765c8.188 0 16.048 3.223 21.879 8.966l2.313 2.28c2.05 2.006 4.79 3.135 7.662 3.135h5.009c2.083 0 3.771 1.688 3.771 3.771v4.573z" fill="#fff"/><path d="m223.385 288.543-29.615 23.596c-3.267 2.603-7.321 4.02-11.498 4.02h-91.372c-4.168 0-6.004-5.252-2.744-7.849l24.81-19.767z" fill="#d1f6ff"/><g fill="#fff"><path d="m282.746 165.31v7.186c0 1.896-1.537 3.434-3.434 3.434h-21.958c-1.896 0-3.434 1.537-3.434 3.433 0 1.896 1.537 3.433 3.434 3.433h19.323c1.896 0 3.434 1.537 3.434 3.434v7.186c0 1.896-1.537 3.433-3.434 3.433h-19.323c-1.896 0-3.434 1.537-3.434 3.434v.08c0 1.896 1.537 3.434 3.434 3.434h22.677c1.896 0 3.433 1.537 3.433 3.433v7.186c0 1.896-1.537 3.433-3.433 3.433h-41.202c-1.896 0-3.434-1.537-3.434-3.433v-49.106c0-1.896 1.537-3.433 3.434-3.433h40.483c1.897-.001 3.434 1.536 3.434 3.433z"/><path d="m309.862 163.504 4.218 6.823c1.342 2.171 4.499 2.171 5.841 0l4.218-6.823c.626-1.012 1.731-1.628 2.921-1.628h13.4c2.756 0 4.389 3.084 2.84 5.363l-13.173 19.382c-.79 1.162-.792 2.688-.005 3.852l14.88 22.021c1.541 2.28-.093 5.356-2.845 5.356h-13.874c-1.16 0-2.242-.586-2.876-1.558l-5.505-8.445c-1.361-2.087-4.422-2.076-5.767.022l-5.383 8.4c-.631.985-1.721 1.581-2.891 1.581h-13.215c-2.768 0-4.398-3.108-2.825-5.385l14.594-21.119c.801-1.16.812-2.691.028-3.862l-13.568-20.263c-1.527-2.281.108-5.344 2.853-5.344h13.214c1.189-.001 2.295.615 2.92 1.627z"/><path d="m370.738 165.31v49.107c0 1.896-1.537 3.433-3.433 3.433h-11.658c-1.896 0-3.434-1.537-3.434-3.433v-49.107c0-1.896 1.537-3.433 3.434-3.433h11.658c1.896-.001 3.433 1.536 3.433 3.433z"/><path d="m425.514 165.31v7.745c0 1.896-1.537 3.434-3.434 3.434h-9.103c-1.896 0-3.434 1.537-3.434 3.434v34.495c0 1.896-1.537 3.433-3.434 3.433h-11.658c-1.896 0-3.434-1.537-3.434-3.433v-34.495c0-1.896-1.537-3.434-3.434-3.434h-9.023c-1.896 0-3.433-1.537-3.433-3.434v-7.745c0-1.896 1.537-3.433 3.433-3.433h43.518c1.898-.001 3.436 1.536 3.436 3.433z"/><path d="m276.215 242.778-3.639 3.639c-3.005 3.005-3.005 7.876 0 10.88l9.184 9.184h-31.693c-4.249 0-7.694 3.445-7.694 7.694v5.147c0 4.249 3.445 7.694 7.694 7.694h31.693l-9.184 9.184c-3.005 3.005-3.005 7.876 0 10.88l3.639 3.639c3.005 3.005 7.876 3.004 10.88 0l28.79-28.79c2.861-2.861 2.861-7.499 0-10.36l-28.79-28.79c-3.005-3.006-7.876-3.006-10.88-.001z"/></g></svg>